<svg width="20" height="22" viewBox="0 0 20 22" fill="none" xmlns="http://www.w3.org/2000/svg">
<path d="M2.78217 6.93844L2.8995 7.67921H2.8995L2.78217 6.93844ZM6.93844 2.78217L7.67921 2.8995V2.8995L6.93844 2.78217ZM16.9389 20.0451L16.4981 19.4383L16.9389 20.0451ZM18.0451 18.9389L17.4383 18.4981L18.0451 18.9389ZM1.95491 18.9389L2.56168 18.4981L1.95491 18.9389ZM3.06107 20.0451L3.50191 19.4383L3.06107 20.0451ZM3.06107 1.95491L2.62024 1.34815L3.06107 1.95491ZM1.95491 3.06107L1.34815 2.62023L1.95491 3.06107ZM16.9389 1.95491L16.4981 2.56168L16.9389 1.95491ZM18.0451 3.06107L17.4383 3.50191L18.0451 3.06107ZM7 1.02893L6.97432 0.279368L7 1.02893ZM1.02893 7L0.279369 6.97432L1.02893 7ZM9.25 16C9.25 16.4142 9.58579 16.75 10 16.75C10.4142 16.75 10.75 16.4142 10.75 16H9.25ZM5.46731 10.672C5.17573 10.9662 5.17784 11.4411 5.47204 11.7327C5.76624 12.0243 6.24111 12.0222 6.53269 11.728L5.46731 10.672ZM7.39785 9.78962L7.93054 10.3176H7.93054L7.39785 9.78962ZM12.6022 9.78962L12.0695 10.3176L12.6022 9.78962ZM13.4673 11.728C13.7589 12.0222 14.2338 12.0243 14.528 11.7327C14.8222 11.4411 14.8243 10.9662 14.5327 10.672L13.4673 11.728ZM9.74933 8.01591L9.65451 7.27193H9.6545L9.74933 8.01591ZM10.2507 8.01591L10.3455 7.27193H10.3455L10.2507 8.01591ZM10 8V7.25V8ZM2.8995 7.67921C5.35988 7.28952 7.28952 5.35988 7.67921 2.8995L6.19768 2.66485C5.90965 4.48339 4.48339 5.90965 2.66485 6.19768L2.8995 7.67921ZM0.25 10V12H1.75V10H0.25ZM19.75 12V10H18.25V12H19.75ZM10 21.75C11.8582 21.75 13.312 21.751 14.4635 21.6263C15.6291 21.5 16.5734 21.2377 17.3798 20.6518L16.4981 19.4383C15.9901 19.8074 15.3399 20.0225 14.302 20.135C13.25 20.249 11.8916 20.25 10 20.25V21.75ZM18.25 12C18.25 13.8916 18.249 15.25 18.135 16.302C18.0225 17.3399 17.8074 17.9901 17.4383 18.4981L18.6518 19.3798C19.2377 18.5734 19.5 17.6291 19.6263 16.4635C19.751 15.312 19.75 13.8582 19.75 12H18.25ZM17.3798 20.6518C17.8679 20.2972 18.2972 19.8679 18.6518 19.3798L17.4383 18.4981C17.1762 18.8589 16.8589 19.1762 16.4981 19.4383L17.3798 20.6518ZM0.25 12C0.25 13.8582 0.24897 15.312 0.373727 16.4635C0.500005 17.6291 0.762323 18.5734 1.34815 19.3798L2.56168 18.4981C2.19259 17.9901 1.97745 17.3399 1.865 16.302C1.75103 15.25 1.75 13.8916 1.75 12H0.25ZM10 20.25C8.10843 20.25 6.74999 20.249 5.69804 20.135C4.66013 20.0225 4.00992 19.8074 3.50191 19.4383L2.62024 20.6518C3.42656 21.2377 4.37094 21.5 5.53648 21.6263C6.68798 21.751 8.14184 21.75 10 21.75V20.25ZM1.34815 19.3798C1.70281 19.8679 2.13209 20.2972 2.62024 20.6518L3.50191 19.4383C3.14111 19.1762 2.82381 18.8589 2.56168 18.4981L1.34815 19.3798ZM2.62024 1.34815C2.13209 1.70281 1.70281 2.13209 1.34815 2.62023L2.56168 3.50191C2.82381 3.14111 3.14111 2.82382 3.50191 2.56168L2.62024 1.34815ZM10 1.75C11.8916 1.75 13.25 1.75103 14.302 1.865C15.3399 1.97745 15.9901 2.19259 16.4981 2.56168L17.3798 1.34815C16.5734 0.762324 15.6291 0.500006 14.4635 0.373728C13.312 0.248971 11.8582 0.25 10 0.25V1.75ZM19.75 10C19.75 8.14184 19.751 6.68798 19.6263 5.53648C19.5 4.37094 19.2377 3.42656 18.6518 2.62023L17.4383 3.50191C17.8074 4.00992 18.0225 4.66013 18.135 5.69804C18.249 6.74999 18.25 8.10843 18.25 10H19.75ZM16.4981 2.56168C16.8589 2.82382 17.1762 3.14111 17.4383 3.50191L18.6518 2.62023C18.2972 2.13209 17.8679 1.70281 17.3798 1.34815L16.4981 2.56168ZM10 0.25C8.83522 0.25 7.83424 0.249906 6.97432 0.279368L7.02568 1.77849C7.85445 1.75009 8.82692 1.75 10 1.75V0.25ZM6.97432 0.279368C5.10087 0.343555 3.7239 0.546296 2.62024 1.34815L3.50191 2.56168C4.20746 2.04907 5.17075 1.84204 7.02568 1.77849L6.97432 0.279368ZM6.25 1.02892C6.24999 1.96617 6.24707 2.35298 6.19768 2.66485L7.67921 2.8995C7.75165 2.44215 7.74999 1.91121 7.75 1.02893L6.25 1.02892ZM1.75 10C1.75 8.82692 1.75009 7.85445 1.77849 7.02568L0.279369 6.97432C0.249906 7.83424 0.25 8.83522 0.25 10H1.75ZM1.77849 7.02568C1.84204 5.17075 2.04907 4.20746 2.56168 3.50191L1.34815 2.62023C0.546295 3.7239 0.343555 5.10087 0.279369 6.97432L1.77849 7.02568ZM1.02893 7.75C1.91121 7.74999 2.44215 7.75165 2.8995 7.67921L2.66485 6.19768C2.35298 6.24707 1.96618 6.24999 1.02892 6.25L1.02893 7.75ZM10.75 16V8.8H9.25V16H10.75ZM6.53269 11.728L7.93054 10.3176L6.86516 9.26167L5.46731 10.672L6.53269 11.728ZM12.0695 10.3176L13.4673 11.728L14.5327 10.672L13.1348 9.26167L12.0695 10.3176ZM7.93054 10.3176C8.50033 9.74268 8.88386 9.35733 9.20649 9.09823C9.51728 8.84863 9.698 8.77852 9.84416 8.75989L9.6545 7.27193C9.12131 7.33989 8.68367 7.59426 8.26724 7.92869C7.86265 8.25361 7.41012 8.71182 6.86516 9.26167L7.93054 10.3176ZM13.1348 9.26167C12.5899 8.71182 12.1373 8.25362 11.7328 7.92869C11.3163 7.59427 10.8787 7.33989 10.3455 7.27193L10.1558 8.75989C10.302 8.77852 10.4827 8.84863 10.7935 9.09823C11.1161 9.35733 11.4997 9.74268 12.0695 10.3176L13.1348 9.26167ZM9.84416 8.75989C9.89591 8.7533 9.94796 8.75 10 8.75V7.25C9.8846 7.25 9.76921 7.25731 9.65451 7.27193L9.84416 8.75989ZM10 8.75C10.052 8.75 10.1041 8.7533 10.1558 8.75989L10.3455 7.27193C10.2308 7.25731 10.1154 7.25 10 7.25V8.75ZM10.75 8.8V8H9.25V8.8H10.75Z" fill="#FF4D3C"/>
</svg>
